<?xml version="1.0" standalone="no"?>
<!DOCTYPE svg PUBLIC "-//W3C//DTD SVG 20010904//EN"
 "http://www.w3.org/TR/2001/REC-SVG-20010904/DTD/svg10.dtd">
<svg version="1.0" xmlns="http://www.w3.org/2000/svg"
 width="500.000000pt" height="500.000000pt" viewBox="0 0 500.000000 500.000000"
 preserveAspectRatio="xMidYMid meet">
<metadata>
Created by potrace 1.15, written by Peter Selinger 2001-2017
</metadata>
<g transform="translate(0.000000,500.000000) scale(0.100000,-0.100000)"
fill="#000000" stroke="none">
<path d="M26 4974 l-26 -27 0 -2447 0 -2447 26 -27 27 -26 2447 0 2447 0 27
26 26 27 0 2447 0 2447 -26 27 -27 26 -2447 0 -2447 0 -27 -26z m2362 -1713
c11 -6 124 -273 297 -700 l280 -691 59 0 c86 0 123 -43 79 -92 -15 -17 -41
-18 -419 -18 -434 0 -434 0 -434 52 0 46 26 58 127 58 51 0 93 3 93 8 0 4 -35
94 -77 200 l-78 192 -218 -2 -219 -3 -78 -197 -78 -198 146 0 c121 0 148 -3
164 -17 22 -20 23 -51 1 -75 -15 -17 -38 -18 -324 -18 -334 0 -339 1 -339 55
0 45 23 55 130 55 l98 0 30 73 c122 295 386 955 442 1105 38 101 76 192 86
203 15 16 31 19 116 19 55 0 107 -4 116 -9z m1133 -1041 c48 -14 127 -84 150
-135 43 -93 12 -228 -67 -293 -75 -62 -164 -77 -257 -42 -158 59 -212 273 -99
394 31 32 89 71 118 79 35 9 118 7 155 -3z"/>
<path d="M2196 3059 l-38 -102 101 -251 c56 -138 155 -381 220 -541 l118 -290
121 -3 c67 -1 122 1 122 5 -1 4 -117 294 -258 643 l-258 635 -45 3 -46 3 -37
-102z"/>
<path d="M2017 2607 c-42 -105 -79 -200 -83 -209 -6 -17 6 -18 160 -18 102 0
166 4 166 10 0 9 -157 400 -163 407 -2 1 -38 -84 -80 -190z"/>
<path d="M3371 2103 c-93 -46 -94 -190 -2 -238 125 -64 258 63 193 184 -35 65
-120 89 -191 54z"/>
</g>
</svg>
